HIERARCHY
ROOT Hips
{
	OFFSET 0.000000 0.000000 0.000000
	CHANNELS 6 Xposition Yposition Zposition Zrotation Yrotation Xrotation 
	JOINT LHipJoint
	{
		OFFSET 0.000000 0.000000 0.000000
		CHANNELS 3 Zrotation Yrotation Xrotation
		JOINT LeftUpLeg
		{
			OFFSET 1.363060 -1.794630 0.839290
			CHANNELS 3 Zrotation Yrotation Xrotation
			JOINT LeftLeg
			{
				OFFSET 2.448110 -6.726130 0.000000
				CHANNELS 3 Zrotation Yrotation Xrotation
				JOINT LeftFoot
				{
					OFFSET 2.562200 -7.039590 0.000000
					CHANNELS 3 Zrotation Yrotation Xrotation
					JOINT LeftToeBase
					{
						OFFSET 0.157640 -0.433110 2.322550
						CHANNELS 3 Zrotation Yrotation Xrotation
						End Site
						{
							OFFSET 0.000000 0.000000 0.000000
						}
					}
				}
			}
		}
	}
	JOINT RHipJoint
	{
		OFFSET 0.000000 0.000000 0.000000
		CHANNELS 3 Zrotation Yrotation Xrotation
		JOINT RightUpLeg
		{
			OFFSET -1.305520 -1.794630 0.839290
			CHANNELS 3 Zrotation Yrotation Xrotation
			JOINT RightLeg
			{
				OFFSET -2.542530 -6.985550 0.000000
				CHANNELS 3 Zrotation Yrotation Xrotation
				JOINT RightFoot
				{
					OFFSET -2.568260 -7.056230 0.000000
					CHANNELS 3 Zrotation Yrotation Xrotation
					JOINT RightToeBase
					{
						OFFSET -0.164730 -0.452590 2.363150
						CHANNELS 3 Zrotation Yrotation Xrotation
						End Site
						{
							OFFSET 0.000000 0.000000 0.000000
						}
					}
				}
			}
		}
	}
}
MOTION
Frames: 27
Frame Time: 0.008333
16.471781 16.508654 2.091900 148.200431 -84.544152 -99.684835 -8.183709 -0.361195 3.344467 -9.630952 -14.660550 -60.642629 -2.201444 -0.573581 25.465662 3.691840 11.838485 -17.840161 -1.603700 -0.000000 -33.275300 8.136955 1.047059 3.586496 1.921104 7.497437 -64.727944 2.083996 -0.895433 29.080461 -3.178306 -7.655070 -16.590465 0.481900 0.000000 -52.976700
16.443938 16.427125 2.089164 146.022674 -84.501279 -96.405250 -8.103789 -0.343883 3.511947 -9.463489 -15.381164 -62.826275 -2.147096 -0.413648 27.375477 3.816398 11.898547 -18.678273 -1.792800 -0.000000 -33.161700 8.157880 1.125421 3.739079 1.462912 7.607150 -67.141692 1.988425 -1.175669 31.385019 -3.289774 -7.712841 -17.557385 0.646100 0.000000 -52.610400
16.417233 16.338736 2.086820 143.846914 -84.454413 -93.144224 -8.029600 -0.335591 3.665504 -9.266367 -16.103485 -65.061680 -2.075770 -0.233988 29.440625 3.946228 11.976730 -19.556026 -1.997200 -0.000001 -33.031700 8.178596 1.215932 3.876254 0.988603 7.701853 -69.572795 1.877144 -1.471136 33.800988 -3.405414 -7.802310 -18.532996 0.818000 0.000000 -52.266200
16.391253 16.242576 2.084411 141.561311 -84.391077 -89.788212 -7.956366 -0.332372 3.816458 -9.045075 -16.854985 -67.352796 -1.985328 -0.039421 31.647225 4.085755 12.094331 -20.466173 -2.218101 -0.000000 -32.856500 8.205184 1.322877 4.006210 0.471656 7.768090 -72.051813 1.744840 -1.785391 36.365990 -3.523712 -7.920752 -19.519242 0.998699 -0.000000 -51.946200
16.366186 16.138891 2.082392 139.272478 -84.320591 -86.453104 -7.888963 -0.341171 3.954325 -8.794255 -17.608817 -69.678368 -1.875722 0.169418 33.988857 4.231133 12.241720 -21.410241 -2.456800 0.000001 -32.631899 8.231228 1.443323 4.123359 -0.066991 7.814314 -74.530449 1.594941 -2.108730 39.024476 -3.643975 -8.070937 -20.509058 1.188700 -0.000000 -51.646900
16.341954 16.027462 2.080697 136.963644 -84.241797 -83.127624 -7.826947 -0.363146 4.080208 -8.515694 -18.364911 -72.028763 -1.747087 0.389355 36.452959 4.382016 12.421596 -22.386331 -2.714700 -0.000000 -32.348000 8.256808 1.577214 4.229464 -0.627782 7.836758 -77.002180 1.427365 -2.438767 41.770899 -3.764757 -8.250185 -21.502803 1.389300 0.000000 -51.366500
16.318335 15.908230 2.079378 134.651136 -84.157567 -79.832394 -7.771422 -0.400861 4.192120 -8.210605 -19.113978 -74.390951 -1.600553 0.617995 39.028217 4.536411 12.630366 -23.394074 -2.992900 -0.000000 -32.006600 8.280259 1.722450 4.324350 -1.201086 7.835959 -79.450068 1.243961 -2.771617 44.586638 -3.884787 -8.455671 -22.500680 1.601301 -0.000000 -51.102600
16.295479 15.781395 2.078471 132.343577 -84.072008 -76.583765 -7.723077 -0.456986 4.287730 -7.880147 -19.845635 -76.751135 -1.437861 0.853304 41.702384 4.691635 12.862188 -24.431925 -3.291500 -0.000000 -31.619000 8.299940 1.876353 4.407208 -1.773874 7.813641 -81.857756 1.047025 -3.104110 47.452956 -4.003037 -8.684618 -23.502911 1.825900 0.000000 -50.854000
16.273358 15.647208 2.078019 130.055857 -83.990723 -73.402027 -7.683001 -0.533645 4.365292 -7.526536 -20.546919 -79.094716 -1.261352 1.093777 44.463586 4.844539 13.109236 -25.498264 -3.609900 -0.000000 -31.205300 8.314463 2.034915 4.477715 -2.329500 7.774834 -84.208153 0.839000 -3.433395 50.351148 -4.119001 -8.935157 -24.509763 2.063700 -0.000000 -50.621900
16.251734 15.506156 2.078041 127.794271 -83.919365 -70.300098 -7.651519 -0.632548 4.423210 -7.151850 -21.205874 -81.407700 -1.073398 1.338283 47.298566 4.992108 13.364872 -26.588792 -3.946299 -0.000000 -30.792300 8.323029 2.194439 4.534893 -2.850943 7.725261 -86.487410 0.622088 -3.757644 53.264465 -4.232394 -9.205860 -25.520151 2.315400 -0.000000 -50.407699
16.230269 15.358715 2.078554 125.561424 -83.863765 -67.281093 -7.628638 -0.754506 4.460529 -6.758492 -21.812255 -83.678137 -0.876438 1.585831 50.192277 5.131394 13.622160 -27.697305 -4.297700 -0.000000 -30.411600 8.325490 2.351386 4.577711 -3.322029 7.671904 -88.685283 0.398183 -4.075537 56.176909 -4.343430 -9.496308 -26.532596 2.581600 -0.000000 -50.214900
16.209042 15.205674 2.079504 123.362137 -83.829626 -64.356074 -7.614093 -0.899322 4.477108 -6.350697 -22.355348 -85.892103 -0.672782 1.836162 53.129676 5.259791 13.875155 -28.816488 -4.660500 0.000000 -30.093200 8.322130 2.502431 4.605672 -3.727766 7.623232 -90.790716 0.168561 -4.386043 59.073241 -4.452458 -9.806789 -27.543291 2.862300 0.000000 -50.048800
16.187725 15.047808 2.080812 121.201942 -83.820316 -61.531241 -7.606918 -1.065086 4.473876 -5.934301 -22.828316 -88.037475 -0.464499 2.088904 56.092767 5.375424 14.119528 -29.936732 -5.030100 0.000000 -29.864000 8.314311 2.645648 4.618848 -4.058866 7.586475 -92.797042 -0.066161 -4.688463 61.940445 -4.559853 -10.137436 -28.548084 3.157500 0.000000 -49.915100
16.165911 14.886099 2.082395 119.081212 -83.838329 -58.808506 -7.605829 -1.249101 4.452148 -5.515883 -23.227206 -90.103393 -0.253191 2.343834 59.062883 5.477249 14.352432 -31.048960 -5.402200 0.000000 -29.741800 8.303495 2.780102 4.617287 -4.310113 7.567468 -94.699181 -0.305631 -4.982336 64.766365 -4.665642 -10.487217 -29.541651 3.466500 0.000000 -49.819800
16.129324 14.708085 2.102411 108.758123 -84.033026 -47.596744 -7.629778 -1.569751 4.727592 -4.268143 -24.078705 -92.818246 0.055990 2.495740 62.021081 5.554339 14.530630 -31.879748 -5.657100 -0.000000 -30.213400 8.290750 2.706462 4.664123 -4.018698 7.228338 -96.938526 -0.485283 -5.379609 67.544398 -4.823728 -10.924677 -30.642533 3.834700 0.000000 -49.559700
16.105645 14.541501 2.104060 106.604112 -84.088643 -44.961645 -7.619131 -1.770211 4.674211 -3.866575 -24.318366 -94.697021 0.265992 2.750016 64.943005 5.628694 14.732673 -32.952390 -6.020401 0.000000 -30.325300 8.296654 2.831689 4.639536 -4.117791 7.259368 -98.625597 -0.739665 -5.659696 70.259281 -4.924197 -11.301983 -31.596138 4.168301 0.000000 -49.562600
16.080769 14.374168 2.105549 104.502294 -84.166373 -42.436923 -7.610267 -1.971997 4.610376 -3.493203 -24.494955 -96.469348 0.476349 3.005133 67.813695 5.690987 14.922497 -33.995118 -6.376500 -0.000000 -30.540500 8.305534 2.954005 4.605049 -4.157148 7.308528 -100.201821 -0.998471 -5.929642 72.904685 -5.019831 -11.682052 -32.524533 4.508700 0.000001 -49.623500
16.054046 14.207098 2.106643 102.486257 -84.258035 -40.053482 -7.602742 -2.169343 4.539093 -3.160687 -24.619198 -98.126618 0.686492 3.259958 70.614417 5.743043 15.101651 -35.004570 -6.724300 0.000000 -30.839600 8.318853 3.075874 4.563526 -4.153202 7.368317 -101.666065 -1.261378 -6.189001 75.474252 -5.108332 -12.053940 -33.424850 4.851300 0.000000 -49.752300
16.025317 14.041312 2.107282 100.578745 -84.356547 -37.830920 -7.596517 -2.358174 4.462976 -2.876829 -24.703015 -99.664776 0.896209 3.513053 73.329995 5.786758 15.271151 -35.980142 -7.063400 -0.000000 -31.199200 8.337173 3.199032 4.517658 -4.122639 7.430992 -103.018913 -1.527729 -6.437399 77.962504 -5.187318 -12.405729 -34.294792 5.190700 0.000000 -49.955300
15.994640 13.877792 2.107344 98.811892 -84.451957 -35.799740 -7.591673 -2.534601 4.384268 -2.651159 -24.760722 -101.077468 1.104973 3.762666 75.946527 5.824258 15.432993 -36.922667 -7.394500 0.000000 -31.593600 8.361199 3.325368 4.470175 -4.083919 7.485084 -104.259665 -1.796735 -6.674574 80.365606 -5.254079 -12.724106 -35.132628 5.520400 0.000000 -50.242700
15.961793 13.717555 2.106762 97.209484 -84.535584 -33.983249 -7.588719 -2.696777 4.304996 -2.488228 -24.805831 -102.361205 1.312395 4.006933 78.454182 5.857417 15.588900 -37.834315 -7.718600 0.000001 -31.999400 8.390863 3.455435 4.423440 -4.052337 7.520565 -105.388304 -2.067474 -6.900305 82.680838 -5.306431 -12.997530 -35.936514 5.833700 0.000000 -50.623300
15.926742 13.561356 2.105560 95.788614 -84.600554 -32.395133 -7.587836 -2.843150 4.226956 -2.390287 -24.851236 -103.512632 1.518016 4.243521 80.845759 5.888011 15.741249 -38.717408 -8.037200 -0.000000 -32.398100 8.426732 3.589707 4.379443 -4.040444 7.527845 -106.404252 -2.338814 -7.114504 84.905976 -5.342679 -13.216430 -36.704386 6.124200 -0.000000 -51.104801
15.889663 13.410104 2.103787 94.539569 -84.642494 -31.026204 -7.589424 -2.974582 4.151438 -2.353278 -24.905786 -104.531301 1.721584 4.470375 83.117850 5.917110 15.891993 -39.572447 -8.351000 0.000000 -32.781500 8.468330 3.727202 4.339063 -4.054696 7.502373 -107.306996 -2.609808 -7.316885 87.039234 -5.362402 -13.377174 -37.432363 6.386800 0.000000 -51.692701
15.850524 13.264577 2.101535 93.437992 -84.660557 -29.852307 -7.593808 -3.092404 4.080101 -2.369695 -24.974840 -105.417723 1.922970 4.685426 85.269650 5.945322 16.043268 -40.397799 -8.660200 -0.000000 -33.152200 8.515377 3.866389 4.303031 -4.096704 7.443244 -108.095891 -2.879672 -7.507092 89.079193 -5.366467 -13.482424 -38.115153 6.618401 -0.000000 -52.388000
15.809538 13.125415 2.098977 92.445090 -84.655947 -28.832096 -7.601160 -3.198602 4.014240 -2.428439 -25.060808 -106.174368 2.122157 4.886557 87.301790 5.972932 16.198081 -41.189060 -8.964201 -0.000000 -33.524500 8.567458 4.005490 4.270965 -4.163348 7.353568 -108.771092 -3.147779 -7.684632 91.024636 -5.356736 -13.540430 -38.745580 6.818099 -0.000000 -53.188700
15.766750 12.993331 2.096223 91.509902 -84.632896 -27.915465 -7.611408 -3.295433 3.955099 -2.516011 -25.162547 -106.805003 2.319292 5.071974 89.216295 5.999715 16.359486 -41.938877 -9.261900 -0.000000 -33.920400 8.623897 4.142632 4.241792 -4.247031 7.240151 -109.332610 -3.413735 -7.848953 92.874483 -5.336284 -13.566061 -39.315629 6.988100 0.000000 -54.086500
15.722642 12.868944 2.093361 90.585706 -84.596129 -27.055180 -7.624555 -3.384815 3.903763 -2.619607 -25.277090 -107.313012 2.514369 5.240082 91.015035 6.025192 16.530844 -42.637729 -9.551500 -0.000000 -34.366700 8.683972 4.276089 4.214238 -4.338690 7.111878 -109.781175 -3.677317 -7.999289 94.627897 -5.308655 -13.577623 -39.816653 7.132700 -0.000000 -55.069899
